<?xml version="1.0" encoding="utf-8"?>
<!-- Generator: Adobe Illustrator 16.0.0, SVG Export Plug-In . SVG Version: 6.00 Build 0)  -->
<!DOCTYPE svg PUBLIC "-//W3C//DTD SVG 1.1//EN" "http://www.w3.org/Graphics/SVG/1.1/DTD/svg11.dtd">
<svg version="1.1" id="Capa_1" xmlns="http://www.w3.org/2000/svg" xmlns:xlink="http://www.w3.org/1999/xlink" x="0px" y="0px"
	 width="186px" height="271px" viewBox="0 0 186 271" enable-background="new 0 0 186 271" xml:space="preserve">
<g>
	<g>
		<g>
			<rect y="1" fill="#282828" width="186" height="271"/>
			<rect x="8" y="9" fill="#FFFFFF" width="170" height="255"/>
			<polygon fill="#060306" points="165,52.229 165,251 53.03,251 21,219.479 21,22 133.03,22 			"/>
		</g>
	</g>
	<g>
		<path fill="#FFFFFF" d="M43.377,93.977v65.516c0,6.064,2.669,8.25,6.916,8.25s6.916-2.186,6.916-8.25V93.977h12.618v64.666
			c0,13.588-6.795,21.352-19.898,21.352c-13.103,0-19.896-7.764-19.896-21.352V93.977H43.377z"/>
		<path fill="#FFFFFF" d="M83.9,117.393h-0.242v61.51H71.646V93.977h16.744l13.466,50.834h0.243V93.977h11.891v84.926h-13.711
			L83.9,117.393z"/>
		<path fill="#FFFFFF" d="M115.446,114.358c0-13.588,7.158-21.353,20.261-21.353c13.104,0,20.262,7.765,20.262,21.353v44.162
			c0,13.589-7.158,21.354-20.262,21.354c-13.103,0-20.261-7.765-20.261-21.354V114.358z M128.792,159.369
			c0,6.066,2.669,8.373,6.915,8.373c4.247,0,6.916-2.307,6.916-8.373V113.51c0-6.067-2.669-8.371-6.916-8.371
			c-4.246,0-6.915,2.304-6.915,8.371V159.369z"/>
	</g>
</g>
</svg>
