<?xml version="1.0" encoding="utf-8"?>
<!-- Generator: Adobe Illustrator 16.0.0, SVG Export Plug-In . SVG Version: 6.00 Build 0)  -->
<!DOCTYPE svg PUBLIC "-//W3C//DTD SVG 1.1//EN" "http://www.w3.org/Graphics/SVG/1.1/DTD/svg11.dtd">
<svg version="1.1" id="Capa_1" xmlns="http://www.w3.org/2000/svg" xmlns:xlink="http://www.w3.org/1999/xlink" x="0px" y="0px"
	 width="186px" height="271px" viewBox="0 0 186 271" enable-background="new 0 0 186 271" xml:space="preserve">
<g>
	<g>
		<rect fill="#282828" width="186" height="271"/>
		<rect x="8" y="8" fill="#333F8E" width="170" height="255"/>
		<polygon fill="#FFFFFF" points="165,51.5 165,250 53.5,250 21,218.75 21,21 133.5,21 		"/>
	</g>
	<g>
		<path fill="#FFFFFF" d="M156.445,24.409h3.961v2.306h-3.961v4.052h-2.308v-4.052h-3.962v-2.306h3.962v-3.993h2.308V24.409z"/>
		<path fill="#FFFFFF" d="M164.133,17.933c-1.035,0-1.686,0.563-1.686,2.041v2.218h-3.076V20.18c0-3.312,1.656-5.204,4.85-5.204
			s4.85,1.893,4.85,5.204c0,2.75-1.006,4.969-4.021,8.191c-1.922,2.069-2.454,3.045-2.454,4.139c0,0.148,0,0.297,0.028,0.444h6.151
			v2.957h-9.403v-2.543c0-2.307,0.828-4.051,3.252-6.594c2.484-2.632,3.195-4.259,3.195-6.477
			C165.818,18.435,165.168,17.933,164.133,17.933z"/>
	</g>
	<g>
		<path fill="#FFFFFF" d="M28.182,245.701h-3.961v-2.306h3.961v-4.052h2.308v4.052h3.962v2.306h-3.962v3.993h-2.308V245.701z"/>
		<path fill="#FFFFFF" d="M20.494,252.178c1.035,0,1.686-0.563,1.686-2.041v-2.218h3.076v2.012c0,3.312-1.656,5.204-4.85,5.204
			s-4.85-1.893-4.85-5.204c0-2.75,1.006-4.969,4.021-8.191c1.922-2.069,2.454-3.045,2.454-4.139c0-0.148,0-0.297-0.028-0.444h-6.151
			v-2.957h9.403v2.543c0,2.307-0.828,4.051-3.252,6.594c-2.484,2.632-3.195,4.259-3.195,6.477
			C18.809,251.676,19.459,252.178,20.494,252.178z"/>
	</g>
	<g>
		<polygon fill="#333F8E" points="109,112 109,59.209 95.32,45 42,45 42,137.879 57.691,153 76,153 76,112 		"/>
		<polygon fill="#333F8E" points="129.136,112 109,112 109,153 76,153 76,204.301 91.506,219 144,219 144,125.632 		"/>
	</g>
</g>
</svg>
