<?xml version="1.0" encoding="utf-8"?>
<!-- Generator: Adobe Illustrator 16.0.0, SVG Export Plug-In . SVG Version: 6.00 Build 0)  -->
<!DOCTYPE svg PUBLIC "-//W3C//DTD SVG 1.1//EN" "http://www.w3.org/Graphics/SVG/1.1/DTD/svg11.dtd">
<svg version="1.1" id="Capa_1" xmlns="http://www.w3.org/2000/svg" xmlns:xlink="http://www.w3.org/1999/xlink" x="0px" y="0px"
	 width="186px" height="271px" viewBox="0 0 186 271" enable-background="new 0 0 186 271" xml:space="preserve">
<g>
	<g>
		<rect y="1" fill="#282828" width="186" height="271"/>
		<rect x="8" y="9" fill="#060306" width="170" height="255"/>
		<polygon fill="#FFFFFF" points="165,52.229 165,251 53.03,251 21,219.479 21,22 133.03,22 		"/>
	</g>
	<g>
		<path fill="#FFFFFF" d="M155.461,24.888h4.119v2.397h-4.119v4.21h-2.396v-4.21h-4.117v-2.397h4.117v-4.148h2.396V24.888z"/>
		<path fill="#FFFFFF" d="M158.934,29.866l6.146-14.535h3.688v14.535h1.598v3.072h-1.598v3.903h-3.381v-3.903h-6.453V29.866z
			 M165.387,29.866v-7.959h-0.061l-3.289,7.959H165.387z"/>
	</g>
	<g>
		<path fill="#FFFFFF" d="M30.75,248.626h-4.118v-2.397h4.118v-4.21h2.396v4.21h4.118v2.397h-4.118v4.148H30.75V248.626z"/>
		<path fill="#FFFFFF" d="M27.277,243.647l-6.146,14.535h-3.688v-14.535h-1.598v-3.072h1.598v-3.903h3.38v3.903h6.454V243.647z
			 M20.824,243.647v7.959h0.061l3.289-7.959H20.824z"/>
	</g>
	<g>
		<polygon fill="#E1CD26" points="93,59.117 93,137 48.803,137 37,124.258 37,48 79.963,48 		"/>
		<polygon fill="#C23435" points="149,59.117 149,137 105.488,137 93,137 93,124.258 93,48 136.646,48 		"/>
		<polygon fill="#333F8E" points="93,148.793 93,226 48.803,226 37,213.935 37,137 79.963,137 93,137 		"/>
		<polygon fill="#3B7739" points="149,148.793 149,226 105.488,226 93,213.935 93,137 136.646,137 		"/>
	</g>
</g>
</svg>
