<?xml version="1.0" encoding="utf-8"?>
<!-- Generator: Adobe Illustrator 16.0.0, SVG Export Plug-In . SVG Version: 6.00 Build 0)  -->
<!DOCTYPE svg PUBLIC "-//W3C//DTD SVG 1.1//EN" "http://www.w3.org/Graphics/SVG/1.1/DTD/svg11.dtd">
<svg version="1.1" id="Capa_1" xmlns="http://www.w3.org/2000/svg" xmlns:xlink="http://www.w3.org/1999/xlink" x="0px" y="0px"
	 width="186px" height="271px" viewBox="0 0 186 271" enable-background="new 0 0 186 271" xml:space="preserve">
<g>
	<g>
		<rect fill="#282828" width="186" height="271"/>
		<rect x="8" y="8" fill="#C23435" width="170" height="255"/>
		<polygon fill="#FFFFFF" points="165,51.5 165,250 53.5,250 21,218.75 21,21 133.5,21 		"/>
	</g>
	<g>
		<polygon fill="#C23435" points="157.949,199.383 40.953,77.995 69.182,50.786 138.109,122.301 145.287,115.382 157.871,199.301 		
			"/>
		<polygon fill="#C23435" points="27.314,65.727 144.311,187.115 116.081,214.323 47.153,142.809 39.625,150.063 27.393,65.809 		
			"/>
	</g>
	<g>
		<polygon fill="#FFFFFF" points="172.91,38.118 150.854,15.235 156.176,10.105 169.17,23.587 170.523,22.283 172.895,38.103 		"/>
		<polygon fill="#FFFFFF" points="146.354,14.991 168.41,37.875 163.088,43.004 150.094,29.521 148.675,30.89 146.368,15.006 		"/>
	</g>
	<g>
		<polygon fill="#FFFFFF" points="13.354,231.991 35.41,254.874 30.088,260.004 17.094,246.521 15.74,247.826 13.369,232.006 		"/>
		<polygon fill="#FFFFFF" points="39.91,255.117 17.854,232.234 23.176,227.105 36.17,240.588 37.589,239.22 39.896,255.103 		"/>
	</g>
</g>
</svg>
