<?xml version="1.0" encoding="utf-8"?>
<!-- Generator: Adobe Illustrator 16.0.0, SVG Export Plug-In . SVG Version: 6.00 Build 0)  -->
<!DOCTYPE svg PUBLIC "-//W3C//DTD SVG 1.1//EN" "http://www.w3.org/Graphics/SVG/1.1/DTD/svg11.dtd">
<svg version="1.1" id="Capa_1" xmlns="http://www.w3.org/2000/svg" xmlns:xlink="http://www.w3.org/1999/xlink" x="0px" y="0px"
	 width="186px" height="271px" viewBox="0 0 186 271" enable-background="new 0 0 186 271" xml:space="preserve">
<g>
	<g>
		<rect x="1" y="1" fill="#282828" width="186" height="271"/>
		<rect x="9" y="9" fill="#333F8E" width="170" height="255"/>
		<polygon fill="#FFFFFF" points="166,52.5 166,251 54.5,251 22,219.75 22,22 134.5,22 		"/>
	</g>
	<g>
		<polygon fill="#333F8E" points="158.949,200.383 41.953,78.995 70.182,51.786 139.109,123.301 146.287,116.382 158.871,200.301 		
			"/>
		<polygon fill="#333F8E" points="28.314,66.727 145.311,188.115 117.081,215.323 48.153,143.809 40.625,151.063 28.393,66.809 		
			"/>
	</g>
	<g>
		<polygon fill="#FFFFFF" points="173.91,39.118 151.854,16.235 157.176,11.105 170.17,24.587 171.523,23.283 173.895,39.103 		"/>
		<polygon fill="#FFFFFF" points="147.354,15.991 169.41,38.875 164.088,44.004 151.094,30.521 149.675,31.89 147.368,16.006 		"/>
	</g>
	<g>
		<polygon fill="#FFFFFF" points="14.354,232.991 36.41,255.874 31.088,261.004 18.094,247.521 16.74,248.826 14.369,233.006 		"/>
		<polygon fill="#FFFFFF" points="40.91,256.117 18.854,233.234 24.176,228.105 37.17,241.588 38.589,240.22 40.896,256.103 		"/>
	</g>
</g>
</svg>
