<?xml version="1.0" encoding="utf-8"?>
<!-- Generator: Adobe Illustrator 16.0.0, SVG Export Plug-In . SVG Version: 6.00 Build 0)  -->
<!DOCTYPE svg PUBLIC "-//W3C//DTD SVG 1.1//EN" "http://www.w3.org/Graphics/SVG/1.1/DTD/svg11.dtd">
<svg version="1.1" id="Capa_1" xmlns="http://www.w3.org/2000/svg" xmlns:xlink="http://www.w3.org/1999/xlink" x="0px" y="0px"
	 width="186px" height="271px" viewBox="0 0 186 271" enable-background="new 0 0 186 271" xml:space="preserve">
<g>
	<g>
		<g>
			<rect y="1" fill="#282828" width="186" height="271"/>
			<rect x="8" y="9" fill="#333F8E" width="170" height="255"/>
			<polygon fill="#FFFFFF" points="165,52.5 165,251 53.5,251 21,219.75 21,22 133.5,22 			"/>
		</g>
	</g>
	<path fill="#333F8E" d="M142.2,100.57c-3.21-4.391-6.989-8.332-11.237-11.713c-10.409-8.314-23.604-13.279-37.965-13.279
		c-33.643,0-60.92,27.276-60.92,60.925c0,14.356,4.965,27.555,13.275,37.966c3.389,4.242,7.326,8.022,11.712,11.236
		c10.073,7.366,22.495,11.717,35.933,11.717c33.646,0,60.924-27.277,60.924-60.919C153.922,123.062,149.572,110.645,142.2,100.57z
		 M53.686,166.136c-6.223-8.241-9.917-18.509-9.917-29.633c0-27.192,22.042-49.23,49.229-49.23c11.125,0,21.391,3.69,29.633,9.917
		L53.686,166.136z M92.998,185.731c-10.205,0-19.681-3.106-27.542-8.417l68.354-68.354c5.314,7.861,8.417,17.338,8.417,27.543
		C142.228,163.689,120.189,185.731,92.998,185.731z"/>
	<path fill="#FFFFFF" d="M171.37,21.462c-0.575-0.787-1.253-1.494-2.015-2.1c-1.866-1.491-4.231-2.381-6.806-2.381
		c-6.031,0-10.922,4.89-10.922,10.923c0,2.573,0.89,4.939,2.38,6.806c0.607,0.761,1.313,1.438,2.1,2.015
		c1.806,1.32,4.033,2.101,6.442,2.101c6.031,0,10.922-4.891,10.922-10.921C173.472,25.494,172.692,23.268,171.37,21.462z
		 M155.502,33.217c-1.116-1.478-1.778-3.318-1.778-5.313c0-4.875,3.952-8.826,8.826-8.826c1.994,0,3.834,0.661,5.313,1.777
		L155.502,33.217z M162.55,36.729c-1.83,0-3.528-0.557-4.938-1.509l12.254-12.255c0.953,1.409,1.509,3.108,1.509,4.938
		C171.375,32.777,167.424,36.729,162.55,36.729z"/>
	<path fill="#FFFFFF" d="M34.616,240.257c-0.575-0.787-1.253-1.494-2.015-2.1c-1.866-1.491-4.231-2.381-6.806-2.381
		c-6.031,0-10.922,4.89-10.922,10.923c0,2.573,0.89,4.939,2.38,6.806c0.607,0.761,1.313,1.438,2.1,2.015
		c1.806,1.32,4.033,2.101,6.442,2.101c6.031,0,10.922-4.891,10.922-10.921C36.718,244.289,35.938,242.063,34.616,240.257z
		 M18.748,252.012c-1.116-1.478-1.778-3.318-1.778-5.313c0-4.875,3.952-8.826,8.826-8.826c1.994,0,3.834,0.661,5.313,1.777
		L18.748,252.012z M25.796,255.524c-1.83,0-3.528-0.557-4.938-1.509l12.254-12.255c0.953,1.409,1.509,3.108,1.509,4.938
		C34.621,251.572,30.67,255.524,25.796,255.524z"/>
</g>
</svg>
