<?xml version="1.0" encoding="utf-8"?>
<!-- Generator: Adobe Illustrator 16.0.0, SVG Export Plug-In . SVG Version: 6.00 Build 0)  -->
<!DOCTYPE svg PUBLIC "-//W3C//DTD SVG 1.1//EN" "http://www.w3.org/Graphics/SVG/1.1/DTD/svg11.dtd">
<svg version="1.1" id="Capa_1" xmlns="http://www.w3.org/2000/svg" xmlns:xlink="http://www.w3.org/1999/xlink" x="0px" y="0px"
	 width="245px" height="160px" viewBox="0 0 245 160" enable-background="new 0 0 245 160" xml:space="preserve">
<polygon fill="#FFFFFF" points="-1,160 -1,36.705 35.418,0 244,0 244,123.163 209.466,160 "/>
<polygon fill="#FFFFFF" points="206,152 7,152 7,40 38.75,8 236,8 236,120 "/>
<g>
	<g>
		<path fill="#391F55" d="M58.225,25.777v83.541c0,7.732,3.403,10.52,8.818,10.52c5.415,0,8.818-2.787,8.818-10.52V25.777H91.95
			v82.457c0,17.326-8.664,27.227-25.372,27.227s-25.371-9.9-25.371-27.227V25.777H58.225z"/>
		<path fill="#391F55" d="M109.897,55.636h-0.31v78.433H94.271V25.777h21.351l17.171,64.819h0.311V25.777h15.162v108.291h-17.483
			L109.897,55.636z"/>
		<path fill="#391F55" d="M150.121,51.767c0-17.327,9.129-27.228,25.836-27.228c16.709,0,25.836,9.9,25.836,27.228v56.313
			c0,17.327-9.127,27.229-25.836,27.229c-16.707,0-25.836-9.901-25.836-27.229V51.767z M167.139,109.161
			c0,7.735,3.404,10.677,8.818,10.677c5.415,0,8.818-2.941,8.818-10.677V50.685c0-7.735-3.403-10.674-8.818-10.674
			c-5.414,0-8.818,2.938-8.818,10.674V109.161z"/>
	</g>
</g>
</svg>
